<?xml version="1.0" ?><svg enable-background="new 0 0 32 32" version="1.1" viewBox="0 0 32 32" xml:space="preserve" xmlns="http://www.w3.org/2000/svg" xmlns:xlink="http://www.w3.org/1999/xlink"><g id="GLYPH"><g><path d="M16,0C7.163,0,0,7.163,0,16s7.163,16,16,16s16-7.163,16-16S24.837,0,16,0z M16,29.809C8.374,29.809,2.191,23.626,2.191,16    S8.374,2.191,16,2.191S29.809,8.374,29.809,16S23.626,29.809,16,29.809z"/><polygon points="14.132,18.806 18.808,16 14.132,13.194   "/><path d="M16,4.403C9.595,4.403,4.403,9.595,4.403,16S9.595,27.597,16,27.597S27.597,22.405,27.597,16S22.405,4.403,16,4.403z     M23.48,16.603c0,1.292-0.15,2.583-0.15,2.583s-0.146,1.1-0.594,1.583c-0.569,0.635-1.207,0.639-1.499,0.676    C19.144,21.606,16,21.612,16,21.612s-3.89-0.038-5.087-0.16c-0.333-0.066-1.08-0.047-1.649-0.682    c-0.448-0.484-0.594-1.584-0.594-1.584s-0.15-1.291-0.15-2.583v-1.21c0-1.291,0.15-2.582,0.15-2.582s0.146-1.1,0.594-1.585    c0.57-0.635,1.207-0.639,1.499-0.675c2.093-0.162,5.234-0.162,5.234-0.162h0.007c0,0,3.14,0,5.234,0.162    c0.292,0.036,0.93,0.04,1.499,0.675c0.448,0.484,0.594,1.585,0.594,1.585s0.15,1.291,0.15,2.583V16.603z"/></g></g></svg>