<?xml version="1.0" ?><!DOCTYPE svg  PUBLIC '-//W3C//DTD SVG 1.1//EN'  'http://www.w3.org/Graphics/SVG/1.1/DTD/svg11.dtd'><svg enable-background="new 0 0 32 32" version="1.1" viewBox="0 0 32 32" xml:space="preserve" xmlns="http://www.w3.org/2000/svg" xmlns:xlink="http://www.w3.org/1999/xlink"><g><g id="Guide"/><g id="Basket_Add"><g><path d="M16,22.8L16,22.8c-0.3,0-0.5-0.2-0.5-0.5v-6.1c0-0.3,0.2-0.5,0.5-0.5H16c0.3,0,0.5,0.2,0.5,0.5v6.1      C16.5,22.6,16.3,22.8,16,22.8z" fill="#0E0111"/><path d="M12.5,19.3L12.5,19.3c0-0.3,0.2-0.5,0.5-0.5H19c0.3,0,0.5,0.2,0.5,0.5v0.1c0,0.3-0.2,0.5-0.5,0.5H13      C12.7,19.8,12.5,19.6,12.5,19.3z" fill="#0E0111"/></g><path d="M25.2,26H6.7c-0.4,0-0.8-0.3-1-0.7L2.4,13.8     c-0.2-0.6,0.3-1.2,1-1.2h25.4c0.7,0,1.1,0.6,1,1.2l-3.4,11.5C26.1,25.7,25.7,26,25.2,26z" fill="none" stroke="#000000" stroke-miterlimit="10"/><path d="M4.9,12.6l2.9-6.7C8,5.5,8.4,5.3,8.8,5.3h14.5     c0.4,0,0.8,0.2,0.9,0.6l2.8,6.7" fill="none" stroke="#000000" stroke-miterlimit="10"/></g><g id="Schedule"/><g id="Clipboard"/><g id="Align_Left"/><g id="Align_Right"/><g id="Align_Center_1_"/><g id="Justify"/><g id="Document"/><g id="New_Document"/><g id="Cart"/></g></svg>